<?xml version="1.0" encoding="UTF-8" standalone="no"?>
<!-- Created with Inkscape (http://www.inkscape.org/) -->

<svg
   xmlns:dc="http://purl.org/dc/elements/1.1/"
   xmlns:cc="http://creativecommons.org/ns#"
   xmlns:rdf="http://www.w3.org/1999/02/22-rdf-syntax-ns#"
   xmlns:svg="http://www.w3.org/2000/svg"
   xmlns="http://www.w3.org/2000/svg"
   xmlns:sodipodi="http://sodipodi.sourceforge.net/DTD/sodipodi-0.dtd"
   xmlns:inkscape="http://www.inkscape.org/namespaces/inkscape"
   width="24"
   height="24"
   id="svg2"
   version="1.1"
   inkscape:version="0.91 r13725"
   sodipodi:docname="ic_stat_notify_plan_update.svg"
   inkscape:export-filename="/media/truecrypt6/Daten/Bilder/04 Bearbeitung/float_android/AKG-Vertretungsplan/ic_stat_notify_plan_update/drawable-xxxhdpi/ic_stat_notify_plan_update.png"
   inkscape:export-xdpi="360"
   inkscape:export-ydpi="360">
  <defs
     id="defs4" />
  <sodipodi:namedview
     id="base"
     pagecolor="#ffffff"
     bordercolor="#666666"
     borderopacity="1.0"
     inkscape:pageopacity="0.0"
     inkscape:pageshadow="2"
     inkscape:zoom="31.678384"
     inkscape:cx="5.143386"
     inkscape:cy="12.089288"
     inkscape:document-units="px"
     inkscape:current-layer="layer1"
     showgrid="true"
     inkscape:window-width="1920"
     inkscape:window-height="1031"
     inkscape:window-x="0"
     inkscape:window-y="25"
     inkscape:window-maximized="1">
    <inkscape:grid
       type="xygrid"
       id="grid3001"
       empspacing="5"
       visible="true"
       enabled="true"
       snapvisiblegridlinesonly="true" />
  </sodipodi:namedview>
  <metadata
     id="metadata7">
    <rdf:RDF>
      <cc:Work
         rdf:about="">
        <dc:format>image/svg+xml</dc:format>
        <dc:type
           rdf:resource="http://purl.org/dc/dcmitype/StillImage" />
        <dc:title />
      </cc:Work>
    </rdf:RDF>
  </metadata>
  <g
     inkscape:label="Ebene 1"
     inkscape:groupmode="layer"
     id="layer1"
     transform="translate(0,-1028.3622)">
    <g
       id="g4136"
       style="fill:#ffffff;fill-opacity:1">
      <path
         style="fill:#ffffff;fill-opacity:1"
         inkscape:connector-curvature="0"
         id="path6"
         d="M 11.999999,1043.1122 C 10.23,1041.4623 7.86,1040.4498 5.25,1040.4498 l 0,8.25 c 2.61,0 4.98,1.0125 6.749999,2.6624 1.77,-1.6424 4.14,-2.6624 6.75,-2.6624 l 0,-8.25 c -2.61,0 -4.98,1.0125 -6.75,2.6624 z m 0,-2.6624 c 1.245,0 2.25,-1.005 2.25,-2.25 0,-1.245 -1.005,-2.25 -2.25,-2.25 -1.244999,0 -2.249999,1.005 -2.249999,2.25 0,1.245 1.005,2.25 2.249999,2.25 z" />
      <path
         style="fill:#ffffff;fill-opacity:1"
         id="path6-2"
         d="m 12.198001,1030.0622 c -1.987501,0 -3.7875016,0.7425 -5.1750013,1.95 l -2.6999997,-2.7 0,6.75 6.75,0 -2.7150006,-2.715 c 1.0425006,-0.87 2.3699996,-1.41 3.8400016,-1.41 2.654999,0 4.912499,1.7325 5.699999,4.125 l 1.7775,-0.585 c -1.0425,-3.1425 -3.99,-5.415 -7.477499,-5.415 z"
         inkscape:connector-curvature="0" />
    </g>
  </g>
</svg>
